<svg xmlns="http://www.w3.org/2000/svg" width="620.58" height="566.937" viewBox="0 0 620.58 566.937">
  <g id="accelerator-graphics" transform="translate(0 0)">
    <g id="Group_634" data-name="Group 634" transform="translate(0 0)">
      <ellipse id="Ellipse_75" data-name="Ellipse 75" cx="310.29" cy="17.14" rx="310.29" ry="17.14" transform="translate(0 532.658)" fill="#ffdbd9"/>
      <path id="Path_2574" data-name="Path 2574" d="M208.747,67.612c93.636-16.666,168.566,13.98,197.685,55.131s78.761,14.823,120.135,68.98S569.311,379.548,373.509,389.25,78.357,370.7,57.611,311.305,49.028,96.034,208.747,67.612Z" transform="translate(15.792 19.929)" fill="#ffedec"/>
      <g id="Group_630" data-name="Group 630" transform="translate(129.64 59.7)">
        <path id="Path_2575" data-name="Path 2575" d="M149.14,93.97s29.8,76.273,152.558,87.673,164.643-29.224,207.452-17.377" transform="translate(-82.451 -29.966)" fill="none" stroke="#ff9a8d" stroke-linecap="round" stroke-linejoin="round" stroke-width="1" stroke-dasharray="0 5"/>
        <g id="Group_629" data-name="Group 629">
          <path id="Path_2576" data-name="Path 2576" d="M131.324,111.828l19.443-27.855,27.065-8.149L98.48,45.35Z" transform="translate(-98.48 -45.35)" fill="#ee4437"/>
          <path id="Path_2577" data-name="Path 2577" d="M98.48,45.35l49.839,42.125,5.608,13.441,2.449-18.627Z" transform="translate(-98.48 -45.35)" fill="#e32e20"/>
          <path id="Path_2578" data-name="Path 2578" d="M132.15,85.262l11.124,5.529L137.666,77.35Z" transform="translate(-87.827 -35.225)" fill="#ef857d"/>
        </g>
      </g>
      <circle id="Ellipse_76" data-name="Ellipse 76" cx="42.625" cy="42.625" r="42.625" transform="translate(40.632 145.257) rotate(-22.04)" fill="none" stroke="#ff9a8d" stroke-linecap="round" stroke-linejoin="round" stroke-width="1" stroke-dasharray="0 0 5.08 5.08"/>
      <circle id="Ellipse_77" data-name="Ellipse 77" cx="22.655" cy="22.655" r="22.655" transform="matrix(0.926, -0.379, 0.379, 0.926, 530.018, 272.452)" fill="none" stroke="#ff9a8d" stroke-linecap="round" stroke-linejoin="round" stroke-width="1" stroke-dasharray="0 5"/>
      <g id="Group_631" data-name="Group 631" transform="translate(245.707 15.021)">
        <circle id="Ellipse_78" data-name="Ellipse 78" cx="21.681" cy="21.681" r="21.681" fill="#ffdbd9"/>
        <path id="Path_2579" data-name="Path 2579" d="M212.3,40.446a7.993,7.993,0,0,1-4.555,2.317v3.225H202.93v-3.12a12.173,12.173,0,0,1-6.45-2.435l1.461-3.278a7.987,7.987,0,0,0,1.606,1.106,11.549,11.549,0,0,0,2.37.974,9.52,9.52,0,0,0,2.712.395,5.04,5.04,0,0,0,2.843-.764,2.648,2.648,0,0,0,1.172-2.4,2,2,0,0,0-.685-1.54,5.3,5.3,0,0,0-1.646-1.027c-.645-.263-1.488-.54-2.527-.842A17.819,17.819,0,0,1,200.14,31.6a7.042,7.042,0,0,1-2.514-2.3,6.369,6.369,0,0,1-.974-3.62,6.189,6.189,0,0,1,.737-2.975,6.319,6.319,0,0,1,2.146-2.277,8.7,8.7,0,0,1,3.4-1.277V15.21h4.818v3.949a11.261,11.261,0,0,1,3.015.987,5.677,5.677,0,0,1,1.817,1.343l-1.619,3.12a4.3,4.3,0,0,0-1.053-.842,9.673,9.673,0,0,0-1.922-.908,6.555,6.555,0,0,0-2.225-.395,5.219,5.219,0,0,0-2.883.75,2.434,2.434,0,0,0-1.172,2.172,2.538,2.538,0,0,0,1.316,2.317,10.964,10.964,0,0,0,3.3,1.251,12.9,12.9,0,0,1,5.5,2.593,5.673,5.673,0,0,1,2.119,4.5,6.1,6.1,0,0,1-1.646,4.384Z" transform="translate(-183.54 -10.208)" fill="#fff"/>
      </g>
      <g id="Group_632" data-name="Group 632" transform="translate(106.813 227.673)">
        <path id="Path_2580" data-name="Path 2580" d="M97.713,227.53h23.7v11.137a6.07,6.07,0,0,1-6.069,6.069H103.769a6.07,6.07,0,0,1-6.069-6.069V227.53h0Z" transform="translate(-75.9 -155.681)" fill="#ee4437"/>
        <path id="Path_2581" data-name="Path 2581" d="M148.474,206.624a33.57,33.57,0,0,1-9.031,22.932,34.233,34.233,0,0,1-4.607,4.12,15.1,15.1,0,0,1-15.086,15.073H109.311a15.107,15.107,0,0,1-15.1-15.1v-.408a33.664,33.664,0,1,1,54.262-26.618Z" transform="translate(-81.14 -172.95)" fill="#7b7b7b"/>
        <path id="Path_2582" data-name="Path 2582" d="M137.273,220.446a34.232,34.232,0,0,1-4.607,4.12,15.1,15.1,0,0,1-15.086,15.073H107.141a15.107,15.107,0,0,1-15.1-15.1v-.408A33.477,33.477,0,0,1,88,220.446a25.577,25.577,0,0,1,49.273,0Z" transform="translate(-78.969 -163.841)" fill="#57575e"/>
        <path id="Path_2583" data-name="Path 2583" d="M123.505,198.025h-1.869a11.685,11.685,0,0,1-10.729,11.624V198.025a.935.935,0,1,0-1.869,0v11.624a11.666,11.666,0,0,1-10.729-11.624H96.44a13.548,13.548,0,0,0,12.611,13.493v27.7a.935.935,0,0,0,1.869,0v-27.7a13.557,13.557,0,0,0,12.611-13.493Z" transform="translate(-76.299 -165.312)" fill="#fff"/>
        <path id="Path_2584" data-name="Path 2584" d="M110.98,177.05a25.905,25.905,0,0,1,17.627,12.98" transform="translate(-71.698 -171.653)" fill="none" stroke="#fff" stroke-linecap="round" stroke-linejoin="round" stroke-width="3"/>
        <line id="Line_38" data-name="Line 38" x2="0.632" y2="1.553" transform="translate(59.304 23.774)" fill="none" stroke="#fff" stroke-linecap="round" stroke-linejoin="round" stroke-width="3"/>
      </g>
      <g id="Group_633" data-name="Group 633" transform="translate(485.938 86.502)">
        <path id="Path_2585" data-name="Path 2585" d="M439.541,107.717V95.2l-9.425-1.9a26.614,26.614,0,0,0-1.185-2.988l6-7.7-8.175-9.478L417.768,78.2a26.486,26.486,0,0,0-4.673-2.054l-2.08-10.439H398.5L396.39,76.136a27.021,27.021,0,0,0-4.476,1.935l-9.992-5.634-8.175,9.478,6.7,8.6c-.276.606-.527,1.237-.75,1.869L369.14,94.513v12.519l10.044,2a28.692,28.692,0,0,0,1.172,3.186l-7.016,9,8.175,9.478,10.413-5.871a24.155,24.155,0,0,0,2.962,1.369l2.37,11.913h12.519L412,127.055a26.046,26.046,0,0,0,4-1.5l10.334,5.832,8.175-9.478-6.253-8.017a27.053,27.053,0,0,0,1.817-4.3l9.439-1.869Zm-34.806,7.319a13.6,13.6,0,1,1,13.6-13.6A13.6,13.6,0,0,1,404.736,115.036Z" transform="translate(-369.14 -65.71)" fill="#ee4437"/>
        <circle id="Ellipse_79" data-name="Ellipse 79" cx="20.589" cy="20.589" r="20.589" transform="translate(6.094 36.204) rotate(-45)" fill="none" stroke="#fff" stroke-linecap="round" stroke-linejoin="round" stroke-width="1"/>
      </g>
      <path id="Path_2586" data-name="Path 2586" d="M265.058,24.44h-5.832V18.608a.658.658,0,0,0-1.316,0V24.44h-5.832a.658.658,0,0,0,0,1.316h5.832v5.832a.658.658,0,0,0,1.316,0V25.756h5.832a.658.658,0,0,0,0-1.316Z" transform="translate(79.551 5.68)" fill="#ff8968"/>
      <path id="Path_2587" data-name="Path 2587" d="M43.8,194.86H37.966v-5.832a.658.658,0,1,0-1.316,0v5.832H30.818a.658.658,0,0,0,0,1.316H36.65v5.832a.658.658,0,1,0,1.316,0v-5.832H43.8a.658.658,0,0,0,0-1.316Z" transform="translate(9.543 59.602)" fill="#ff8968"/>
      <path id="Path_2588" data-name="Path 2588" d="M404.4,183.04h-5.832v-5.832a.658.658,0,0,0-1.316,0v5.832h-5.832a.658.658,0,1,0,0,1.316h5.832v5.832a.658.658,0,0,0,1.316,0v-5.832H404.4a.658.658,0,1,0,0-1.316Z" transform="translate(123.639 55.862)" fill="#ff8968"/>
      <circle id="Ellipse_80" data-name="Ellipse 80" cx="4.37" cy="4.37" r="4.37" transform="translate(251.578 122.229)" fill="#ff9a8d"/>
      <circle id="Ellipse_81" data-name="Ellipse 81" cx="4.37" cy="4.37" r="4.37" transform="translate(187.088 327.641)" fill="#ff9a8d"/>
      <path id="Path_2589" data-name="Path 2589" d="M95.073,29.843h78.142s-5.081-13.256-17.771-18.614-22.563,4.226-22.563,4.226S124.126-1.58,106.92.119s-22.84,14.862-22.84,14.862S64.335,11.229,62.36,29.856H95.086Z" transform="translate(19.731 0)" fill="#ffdbd9"/>
      <path id="Path_2590" data-name="Path 2590" d="M383.732,51.94h64.043s-4.16-10.86-14.559-15.257-18.5,3.462-18.5,3.462-7.174-13.954-21.273-12.572S374.728,39.75,374.728,39.75s-16.179-3.067-17.8,12.19h26.815Z" transform="translate(112.935 8.694)" fill="#ffdbd9"/>
    </g>
    <g id="Group_640" data-name="Group 640" transform="translate(20.207 36.69)">
      <g id="Group_638" data-name="Group 638">
        <g id="Group_635" data-name="Group 635" transform="translate(85.856 113.288)">
          <path id="Path_2591" data-name="Path 2591" d="M183.672,273.24l-44.113,30.488L120.3,406.381h15.244L160,324.975l26.473-7.622Z" transform="translate(-67.999 -63.523)" fill="#ee4437"/>
          <path id="Path_2592" data-name="Path 2592" d="M298.547,273.24l44.113,30.488,19.246,102.653H346.662L322.2,324.975l-26.473-7.622Z" transform="translate(-12.492 -63.523)" fill="#d86a7d"/>
          <path id="Path_2593" data-name="Path 2593" d="M259.508,307.24H177.14l8.649,49.273H317.627l8.649-49.273Z" transform="translate(-50.015 -52.766)" fill="#ee4437"/>
          <rect id="Rectangle_671" data-name="Rectangle 671" width="11.018" height="31.028" rx="4.18" transform="translate(140.855 267.072)" fill="#ff7e74"/>
          <path id="Path_2594" data-name="Path 2594" d="M210.093,347.835h0a5.5,5.5,0,0,1-5.5-5.5V322.323a5.5,5.5,0,0,1,5.5-5.5h0a5.5,5.5,0,0,1,5.5,5.5v20.009A5.5,5.5,0,0,1,210.093,347.835Z" transform="translate(-41.329 -49.734)" fill="#ff7e74"/>
          <path id="Path_2595" data-name="Path 2595" d="M227.1,347.835h0a5.5,5.5,0,0,1-5.5-5.5V322.323a5.5,5.5,0,0,1,5.5-5.5h0a5.5,5.5,0,0,1,5.5,5.5v20.009A5.5,5.5,0,0,1,227.1,347.835Z" transform="translate(-35.947 -49.734)" fill="#ff7e74"/>
          <path id="Path_2596" data-name="Path 2596" d="M244.113,347.835h0a5.5,5.5,0,0,1-5.5-5.5V322.323a5.5,5.5,0,0,1,5.5-5.5h0a5.5,5.5,0,0,1,5.5,5.5v20.009A5.5,5.5,0,0,1,244.113,347.835Z" transform="translate(-30.565 -49.734)" fill="#ff7e74"/>
          <path id="Path_2597" data-name="Path 2597" d="M261.123,347.835h0a5.5,5.5,0,0,1-5.5-5.5V322.323a5.5,5.5,0,0,1,5.5-5.5h0a5.5,5.5,0,0,1,5.5,5.5v20.009A5.5,5.5,0,0,1,261.123,347.835Z" transform="translate(-25.183 -49.734)" fill="#ff7e74"/>
          <path id="Path_2598" data-name="Path 2598" d="M278.143,347.835h0a5.5,5.5,0,0,1-5.5-5.5V322.323a5.5,5.5,0,0,1,5.5-5.5h0a5.5,5.5,0,0,1,5.5,5.5v20.009A5.5,5.5,0,0,1,278.143,347.835Z" transform="translate(-19.798 -49.734)" fill="#ff7e74"/>
          <path id="Path_2599" data-name="Path 2599" d="M344.532,318H164s-.342-105.391,26.71-185.284h0c1.7-5.016,3.5-9.926,5.41-14.691,5.371-.961,11.821-1.9,19.378-2.62,8.938-.869,19.4-1.448,31.449-1.474,1.54,0,3.094.013,4.686.026,8.82.092,17.113.421,24.8.921,7.846.5,15.06,1.158,21.55,1.882,5.424.619,10.347,1.277,14.7,1.922.2.487.395.987.592,1.514.3.777.619,1.606.948,2.462.421,1.132.856,2.291,1.277,3.449s.829,2.33,1.224,3.436c.29.829.566,1.632.829,2.383C344.874,211.91,344.532,318,344.532,318Z" transform="translate(-54.172 -113.93)" fill="#363648"/>
          <path id="Path_2600" data-name="Path 2600" d="M322.373,268.95a584.952,584.952,0,0,1-7.227,64.5H201.554c-5.173-12.611-11.913-33.792-15.534-64.5H255.2c.645,22.287.764,43.784.053,63h33.41s.487-26.328.053-63Z" transform="translate(-47.205 -64.881)" fill="#57575e"/>
          <path id="Path_2601" data-name="Path 2601" d="M275.272,313.639H241.756c-2-69.677-9.254-146.964-13.256-185.719,11.031-.079,22.287-.145,32.4-.211C271.573,174.521,274.561,256.6,275.272,313.639Z" transform="translate(-33.764 -109.57)" fill="#57575e"/>
          <path id="Path_2690" data-name="Path 2690" d="M45.811,0c25.3,0,45.811,19.874,45.811,44.389S71.112,88.778,45.811,88.778,0,68.9,0,44.389,20.51,0,45.811,0Z" transform="translate(151.202 29.975)" fill="#d42113"/>
          <path id="Path_2602" data-name="Path 2602" d="M285.584,176.944a42.664,42.664,0,0,1-1.632,11.742,41.564,41.564,0,0,1-3.225,8.043,42.727,42.727,0,1,1-57.093-57.974.013.013,0,0,1,.013-.013,42.76,42.76,0,0,1,61.937,38.2Z" transform="translate(-42.747 -107.516)" fill="#ff7b70"/>
          <rect id="Rectangle_672" data-name="Rectangle 672" width="346.807" height="22.761" transform="translate(25.551 342.858)" fill="#faada8"/>
          <rect id="Rectangle_673" data-name="Rectangle 673" width="390.406" height="22.761" transform="translate(0 365.619)" fill="#f39e99"/>
          <path id="Path_2603" data-name="Path 2603" d="M235.578,113.93c.474,4.291,1.158,10.544,1.961,18.351-13.73.092-27.144.184-37.61.276,1.58-6.674,3.015-12.48,4.2-17.153C213.068,114.536,223.533,113.956,235.578,113.93Z" transform="translate(-42.804 -113.93)" fill="#ee4437"/>
          <path id="Path_2604" data-name="Path 2604" d="M275.738,131.724c-5.95.026-13.335.066-21.457.118a151.6,151.6,0,0,0-4.871-17.192c7.846.5,15.06,1.158,21.55,1.882C271.934,119.481,273.619,124.668,275.738,131.724Z" transform="translate(-27.148 -113.702)" fill="#ee4437"/>
          <path id="Path_2605" data-name="Path 2605" d="M208.521,333.454H164v-64.5h28.987C196.607,299.662,203.347,320.843,208.521,333.454Z" transform="translate(-54.172 -64.881)" fill="#363648"/>
          <path id="Path_2606" data-name="Path 2606" d="M209.078,115.05c-1.185,4.673-2.62,10.479-4.2,17.153-12.322.092-20.589.158-20.589.158h0c1.7-5.016,3.5-9.926,5.41-14.691,1.843-.329,3.818-.658,5.924-.974.421-.066.856-.118,1.277-.184C200.587,115.971,204.642,115.471,209.078,115.05Z" transform="translate(-47.752 -113.576)" fill="#e32e20"/>
          <path id="Path_2607" data-name="Path 2607" d="M190.71,283.811c.408,10.755,1.2,20.641,2.277,29.711H164s-.342-105.391,26.71-185.284c0,0,8.267-.066,20.589-.158-8.978,38.189-22.5,105.115-20.589,155.731Z" transform="translate(-54.172 -109.453)" fill="#14142b"/>
          <path id="Path_2608" data-name="Path 2608" d="M306.528,268.95v64.5H284.11a584.952,584.952,0,0,0,7.227-64.5Z" transform="translate(-16.169 -64.881)" fill="#ab97f7"/>
          <path id="Path_2609" data-name="Path 2609" d="M285.355,131.245c-.132-.039-5.858-.026-14.8.026-2.119-7.056-3.8-12.243-4.779-15.191,5.424.619,10.347,1.277,14.7,1.922.2.487.395.987.592,1.514.3.777.619,1.606.948,2.462.421,1.132.856,2.291,1.277,3.449s.829,2.33,1.224,3.436c.29.829.566,1.632.829,2.383Z" transform="translate(-21.969 -113.25)" fill="#e32e20"/>
          <path id="Path_2610" data-name="Path 2610" d="M311.18,313.68H295.988c1.316-23.84,1.158-50.668-2.475-76.417a764.122,764.122,0,0,0-24.1-109.63c8.938-.053,14.665-.066,14.8-.026C311.522,207.59,311.18,313.68,311.18,313.68Z" transform="translate(-20.82 -109.61)" fill="#14142b"/>
          <path id="Path_2611" data-name="Path 2611" d="M280.727,193.489a42.735,42.735,0,1,1-69.019-49.049c1.093,1.764,3.225,5.081,6.279,9.175a31.954,31.954,0,1,0,51.063,38.36,54.229,54.229,0,0,0,11.677,1.514Z" transform="translate(-42.747 -104.276)" fill="#ee4437"/>
          <path id="Path_2612" data-name="Path 2612" d="M266.462,189.77A31.954,31.954,0,1,1,215.4,151.41c9.386,12.624,27.526,32.726,51.063,38.36Z" transform="translate(-40.159 -102.071)" fill="#57575e"/>
          <path id="Path_2613" data-name="Path 2613" d="M270.506,174.352a31.653,31.653,0,0,1-5.753,18.272c-23.537-5.634-41.677-25.736-51.063-38.36a31.958,31.958,0,0,1,56.816,20.088Z" transform="translate(-38.45 -104.925)" fill="#7b7b7b"/>
          <path id="Path_2614" data-name="Path 2614" d="M261.368,132.07c-10.11.066-21.365.132-32.4.211-.8-7.806-1.488-14.059-1.961-18.351,1.54,0,3.094.013,4.686.026,2.093.026,4.16.053,6.2.105.263,0,.54.013.8.026q4.561.1,8.9.3c3.054.132,6.016.3,8.9.487a151.6,151.6,0,0,1,4.871,17.192Z" transform="translate(-34.236 -113.93)" fill="#ff7e74"/>
          <path id="Path_2615" data-name="Path 2615" d="M272.033,331.953h-33.41c.711-19.22.592-40.716-.053-63h33.516C272.52,305.625,272.033,331.953,272.033,331.953Z" transform="translate(-30.578 -64.881)" fill="#7b7b7b"/>
          <path id="Path_2616" data-name="Path 2616" d="M278.295,188.686c1.093-19.891-11.8-40.322-32.094-47.285a59.361,59.361,0,0,0-28.211-2.659,42.774,42.774,0,0,1,60.3,49.944Z" transform="translate(-37.09 -107.516)" fill="#ff9a92"/>
          <path id="Path_2617" data-name="Path 2617" d="M134.93,302.757l13.3,45.074L155.374,324l18.943-5.45L173.2,276.31Z" transform="translate(-63.37 -62.552)" fill="#e33325"/>
          <path id="Path_2618" data-name="Path 2618" d="M301.14,288.38l29.25,19.944,21.523,93.267H344.95l-24.459-81.407-19.351-5.568Z" transform="translate(-10.78 -58.733)" fill="#ee4437"/>
        </g>
        <g id="Group_636" data-name="Group 636" transform="translate(0 283.819)">
          <path id="Path_2619" data-name="Path 2619" d="M27.711,426.9H34.78v-9.425H18.72a3.357,3.357,0,1,1,0-6.714H34.78V341.082H23.288a6.016,6.016,0,0,1,0-12.032H52.854a6.016,6.016,0,0,1,0,12.032H41.178v69.677H59.384a3.357,3.357,0,1,1,0,6.714H41.178V426.9h6.964A12.363,12.363,0,0,1,60.5,439.26H15.35A12.363,12.363,0,0,1,27.711,426.9Z" transform="translate(-15.35 -216.395)" fill="#57575e"/>
          <path id="Path_2620" data-name="Path 2620" d="M37.974,396.081,36.645,400s-1.079,1.672-4.173,1.422-3.752-1.33-3.752-1.33l.671-5.016,8.6,1Z" transform="translate(-11.12 -195.503)" fill="#ffb696"/>
          <path id="Path_2621" data-name="Path 2621" d="M59.4,390.323l-3.2,5.239a16.32,16.32,0,0,1-4.963-1.172,5.242,5.242,0,0,1-2.541-2.264l2.567-4.976,8.149,3.173Z" transform="translate(-4.798 -198.012)" fill="#ffb696"/>
          <path id="Path_2622" data-name="Path 2622" d="M57.583,394.177s2.62,6.977,4.673,9.7,2.8,3.383,2.593,4.634-5.16,1.474-8.965-1.251-4.252-4.094-5.963-6.187-3.475-3.5-4-4.884S50.5,389.57,50.5,389.57s.777,3.91,7.082,4.621Z" transform="translate(-5.69 -197.246)" fill="#ee4437"/>
          <path id="Path_2623" data-name="Path 2623" d="M37.113,399.14a55.777,55.777,0,0,0,2,10.1c1.422,4.252,2.751,6.345,2.093,8.188s-3.173,2.672-7.385,1.5-5.055-4.344-5.805-8.267-.829-4.5-.75-5.173,1.922-7.675,1.922-7.675a8.635,8.635,0,0,0,7.938,1.33Z" transform="translate(-11.587 -194.639)" fill="#ee4437"/>
          <path id="Path_2624" data-name="Path 2624" d="M84.224,372.554l-15.3,42.928a13.143,13.143,0,0,1-6.635-1.619,18.976,18.976,0,0,1-4.726-3.383s5.213-35.372,10.294-41.73L48.234,341.487c2.646,10.7,5.358,24.011,4.884,32.252L41.533,420.722c-2.264,2.488-5.608,2.449-8.359,1.8a19.889,19.889,0,0,1-4.765-1.8s6.951-46.627,6.977-46.68c-2.212-6.279-9.978-28.921-10.966-39.031.487-6.687,2.093-18.943,2.093-18.943l5.608-.026,29.014-.171.592,7.161.066-.053s14.638,20.167,21.839,36.412a18.054,18.054,0,0,1,.592,13.164Z" transform="translate(-12.48 -220.566)" fill="#14142b"/>
          <path id="Path_2625" data-name="Path 2625" d="M54.9,271.01a8.069,8.069,0,0,1,3.962,6.279L70.485,310.7,59.6,316.979s-6.279-11.808-7.2-20.483,2.488-25.472,2.488-25.472Z" transform="translate(-3.678 -234.76)" fill="#c91d10"/>
          <path id="Path_2626" data-name="Path 2626" d="M50.6,268.487l13.1,4.055a88.028,88.028,0,0,1,1.659,15.6c0,7.661-2.672,22.6-2.672,22.6L61.055,332.7l-34.542-.921s-.732-10.506-1.342-23.145c-.123-2.556-.241-5.2-.357-8.148-.454-11.578-.647-23.631.158-28.55L40.65,266.17l9.952,2.3Z" transform="translate(-12.479 -236.291)" fill="#e32e20"/>
          <path id="Path_2627" data-name="Path 2627" d="M36.69,273.7l1.2-9.623c-1-5.094-2.383-14.665.711-17.363,4.291-3.739,20.483-4.107,20.207,9.083,0,0-1.843,10.887-4.8,15.692-1.185,1.935-3.923,1.632-6.753.592l-1.593,6.753-8.965-5.121Z" transform="translate(-8.598 -243.16)" fill="#ffb696"/>
          <path id="Path_2628" data-name="Path 2628" d="M58.755,254.277s-9.268,1.251-12.532-1.935c0,0,.487,3.594-.974,5.819s-3.252,2-3.252,2,0-3.528-1.527-3.462-1.843,3.818-1.093,5.99,1.79,2.172,1.79,2.172l-3.186,1.593s-2.422-10.729-2.422-14.112,1.869-4.713,1.869-4.713a6.485,6.485,0,0,1,5.74-4.081c4.634-.487,10.11,1.448,14.678,3.87s5.121,4.779,4.779,5.266-1.382.487-1.382.487.764,4.621-2.527,5.252a12.764,12.764,0,0,0,.026-4.147Z" transform="translate(-8.955 -243.473)" fill="#313280"/>
          <path id="Path_2629" data-name="Path 2629" d="M33.174,422.478a19.889,19.889,0,0,1-4.765-1.8s6.951-46.627,6.977-46.68c-2.212-6.279-9.978-28.921-10.966-39.031.487-6.687,2.093-18.943,2.093-18.943s5.661.092,5.687.145a49.806,49.806,0,0,0-1.567,21.023c1.7,11.426,9.873,37.373,10.307,39.769.408,2.317-10.149,32.857-7.767,45.521Z" transform="translate(-12.48 -220.518)" fill="#282838"/>
          <path id="Path_2630" data-name="Path 2630" d="M46.175,266.854s-5.121-1.83-6.095-5.924c0,0,0,7.069,5.424,8.728l.658-2.8Z" transform="translate(-7.525 -237.949)" fill="#d88c71"/>
          <path id="Path_2631" data-name="Path 2631" d="M37.635,263.75l8.491,8.965-5.358,3.291L35.2,267.7Z" transform="translate(-9.069 -237.057)" fill="#ffedec"/>
          <path id="Path_2632" data-name="Path 2632" d="M44.527,267.7,43.5,272.057l4.2,1.619-.408-5.358-2.264-2.488Z" transform="translate(-6.443 -236.399)" fill="#ffefca"/>
          <path id="Path_2633" data-name="Path 2633" d="M26.4,270.56s3.752,2.633,5.424,10.018,2.027,34.885,2.027,34.885l-10.518,1.659S18.726,294.8,20.2,283.342s6.213-12.782,6.213-12.782Z" transform="translate(-13.908 -234.902)" fill="#c91d10"/>
          <path id="Path_2634" data-name="Path 2634" d="M99.409,315.736a20.341,20.341,0,0,0-.869-2.291c-.382-.987-1.646-1.751-2.909-2.5s-8.135-.369-8.135-.369l-.158.158-18.6-9.57c-5.542-.369-10.887,6.279-10.887,6.279,2.659,2.817,18.732,6.45,25,7.78l3.488,2.949,6.529,2.067s.382-1.224,0-1.79-3.383-1.619-3.9-2.37-.421-1.356,2.449-1.4,3.015,1.2,3.8,1.764,1.264,2.448,2.685,2.685l1.409.237-.329-2.159a4.452,4.452,0,0,0,.448-1.474Z" transform="translate(-1.903 -225.224)" fill="#ffb696"/>
          <path id="Path_2635" data-name="Path 2635" d="M33.027,304.708l22.3,12.15L50.154,322.8s-20.181-5.911-24.09-9.044a9.1,9.1,0,0,1-3.541-7.385s5.542-2.58,10.518-1.659Z" transform="translate(-13.084 -224.16)" fill="#ffb696"/>
          <rect id="Rectangle_674" data-name="Rectangle 674" width="134.142" height="5.345" transform="translate(147.056 103.98) rotate(180)" fill="#14142b"/>
          <path id="Path_2636" data-name="Path 2636" d="M143.557,275.3l-9.794,42.678a2.926,2.926,0,0,1-2.843,2.277H63.283a2.922,2.922,0,0,1-2.857-3.541l9.1-42.678a2.834,2.834,0,0,1,1.527-1.975h0a2.789,2.789,0,0,1,1.343-.342H140.7a2.929,2.929,0,0,1,2.857,3.581Z" transform="translate(-1.109 -234.535)" fill="#57575e"/>
          <path id="Path_2637" data-name="Path 2637" d="M128.84,320.174H63.283a2.922,2.922,0,0,1-2.857-3.541l9.1-42.678a2.834,2.834,0,0,1,1.527-1.975c.316.54,19.075,33.805,57.79,48.194Z" transform="translate(-1.109 -234.453)" fill="#14142b"/>
          <path id="Path_2638" data-name="Path 2638" d="M105.74,293.03l6.464,33.4H79.03l1.106-2.672H93.5L89.048,293.03Z" transform="translate(4.799 -227.792)" fill="#7b7b7b"/>
          <path id="Path_2639" data-name="Path 2639" d="M47.1,314.324l12.229-.974,5.213,3.87.7,2.764H43.51s1.172-4.226,3.594-5.674Z" transform="translate(-6.44 -221.363)" fill="#ffb696"/>
          <path id="Path_2640" data-name="Path 2640" d="M131.9,322.46,117.535,441.345H74.12L90.154,322.46Z" transform="translate(3.245 -218.48)" fill="#14142b"/>
          <path id="Path_2641" data-name="Path 2641" d="M127.689,333.228,83.3,351.7l3.949-29.237h41.743Z" transform="translate(6.15 -218.48)" fill="#363648"/>
          <path id="Path_2642" data-name="Path 2642" d="M67.881,362.861s-5.779,16.916-8.464,30.172A157.415,157.415,0,0,0,56.8,409.3a18.976,18.976,0,0,1-4.726-3.383s5.213-35.372,10.294-41.73L42.738,336.928l-.948-6.648,26.091,32.581Z" transform="translate(-6.984 -216.006)" fill="#26295e"/>
        </g>
        <g id="Group_637" data-name="Group 637" transform="translate(279.052)">
          <path id="Path_2643" data-name="Path 2643" d="M227.33,89.31s50.616,28.869,115.791,39.584c0,0-54.354-37.425-115.791-39.584Z" transform="translate(-227.33 -8.432)" fill="#e32e20"/>
          <path id="Path_2644" data-name="Path 2644" d="M322.222,187.62l-.066,6.556s-9.031,4.515-11.637,5.647-3.173,2.9-1.343,3.528,24.617.816,24.959,0c.921-2.119-2.4-9.1-2.4-9.1l-.566-6.635h-8.952Z" transform="translate(-201.771 22.674)" fill="#14142b"/>
          <path id="Path_2645" data-name="Path 2645" d="M358.954,186.781l3.475,5.647s-4.239,6.2-6.306,7.517c-1.224.79-4.423,1.224-5.266,2.541s0,2.317,5.358,2.383,6.766-.026,9.873-2.185,9.031-7.517,8.938-9.031S370.7,188.6,370.7,188.6l-1.79-4.068-9.965,2.251Z" transform="translate(-188.334 21.696)" fill="#14142b"/>
          <path id="Path_2646" data-name="Path 2646" d="M336.731,117.1s-.843,27.368,4.792,47.114S362.4,215.279,362.4,215.279l15.8-4.515s-11.282-40.9-18.9-51.616c0,0-2.817-45.692-5.924-51.906s-16.639,9.873-16.639,9.873Z" transform="translate(-192.729 -3.208)" fill="#e33325"/>
          <path id="Path_2647" data-name="Path 2647" d="M307.638,34.369c6.266-6.055,18.693-4.37,20.615,2.843,1.606,6.042,1.251,12.532-.685,17.205l3.133,8.149-8.293,6.727-3.37-6.174a14.286,14.286,0,0,1-5.2,1.369c-4.186.211-7.148-5.555-8.873-15.613s2.672-14.507,2.672-14.507Z" transform="translate(-202.891 -26.986)" fill="#ff9f7f"/>
          <path id="Path_2648" data-name="Path 2648" d="M341.153,134.523a442.115,442.115,0,0,0-41.743-17.64q-7.188-2.626-15.073-5.226c-23.287-7.622-41.519-11.176-54.157-12.809,4.028-4.91,8.162-9.583,12.4-13.941,19.391-19.983,40.888-33.516,63.9-34.687,1.3,1.014,2.567,2.08,3.791,3.186a65.378,65.378,0,0,1,5.858,6.069c15.56,18.127,22.813,45.047,25.025,75.048Z" transform="translate(-226.428 -20.8)" fill="#ee4437"/>
          <path id="Path_2649" data-name="Path 2649" d="M283.22,116.817c17.021-17.1,13.046-50.958,10.86-63.477,19.628,17.85,28.408,47.562,30.883,81.117a442.118,442.118,0,0,0-41.743-17.64Z" transform="translate(-209.646 -19.813)" fill="#e32e20"/>
          <path id="Path_2650" data-name="Path 2650" d="M344.09,64.307S357.6,80.183,359.663,107.38L332.1,117.845s-17.39-28.527-19.285-38.676,3.831-20.733,3.831-20.733l10.242-6.806S339.917,57.435,344.09,64.307Z" transform="translate(-200.405 -20.354)" fill="#14142b"/>
          <path id="Path_2651" data-name="Path 2651" d="M343.326,61.681a7.423,7.423,0,0,1,1.04,10.492c-5.45,6.569-14.441,17.1-20.641,22.695-9.439,8.53-42.415-1.474-42.415-1.474l1.567-8.649,33.779-.171,16.034-21.563a7.409,7.409,0,0,1,10.637-1.33h0Z" transform="translate(-210.25 -17.702)" fill="#363648"/>
          <path id="Path_2652" data-name="Path 2652" d="M304.4,41.573a9.756,9.756,0,0,1,3.317-8.938c4.4-3.7,10.531-3.383,13.467-2.238a16.674,16.674,0,0,1,3.567,1.659,3.991,3.991,0,0,1,1.909-3.765c2.291-1.593,7.082,1.593,7.464,5.489a3.381,3.381,0,0,1-3.344,3.962,27.291,27.291,0,0,1,0,8.675,23.842,23.842,0,0,1-3.133,8.886,12.693,12.693,0,0,1-4.252-3.778s3-4.213,1.975-7.082-4.212-1.724-4.594,1.027l-.382,2.738-1.856-.448a17.765,17.765,0,0,1-.842-7.661s-12.427,3.7-13.322,1.461Z" transform="translate(-202.982 -27.871)" fill="#14142b"/>
          <path id="Path_2653" data-name="Path 2653" d="M308.773,60.7c3.383,1.659,8.135.9,10.031-2.106s1.264-13.651,1.264-13.651l-1.975-.9-2.04,5.358s-8.267-1.343-10.452-.132c0,0-.211,9.768,3.173,11.426Z" transform="translate(-202.566 -22.752)" fill="#14142b"/>
          <path id="Path_2654" data-name="Path 2654" d="M325.687,50.15,315.63,58.9l1.817,5.279,11.637-10.5Z" transform="translate(-199.391 -20.822)" fill="#363648"/>
          <path id="Path_2655" data-name="Path 2655" d="M285.717,79.568l-2.8-.355s-5.832-2.251-7.661-2.725-2.356.592-2.027,1.54a2.389,2.389,0,0,0-.421,2.449,1.827,1.827,0,0,0-.171,2.212,2.468,2.468,0,0,0,.369,2.04,5.373,5.373,0,0,0,2.791,1.409,3.311,3.311,0,0,0,1.158,0,6.951,6.951,0,0,0,2.962.921,6.3,6.3,0,0,0,2.462-.5l1.975.5,1.356-7.49Z" transform="translate(-213.091 -12.526)" fill="#ff9f7f"/>
          <path id="Path_2656" data-name="Path 2656" d="M354.936,93.97l1.382,4.3-27.078,10.439-1.869-4.278Z" transform="translate(-195.677 -6.957)" fill="#363648"/>
          <path id="Path_2657" data-name="Path 2657" d="M361.575,97.24,334.5,107.679l-21.655,46.114a21.979,21.979,0,0,0-1.909,12.124l6.635,52.051h15.06a183.5,183.5,0,0,0,1.3-30.462,83.869,83.869,0,0,0-4.37-24.656c1.738-2.2,27.921-35.464,32.015-45.008,4.226-9.873,0-20.589,0-20.589Z" transform="translate(-200.934 -5.923)" fill="#ee4437"/>
          <path id="Path_2658" data-name="Path 2658" d="M503.416,482.328h9.031L386.256,204.54h14.665v-5.41H287.71v5.41h17.679l26.328,58.936v.276h.132l14.731,32.976v.658h.3l14.559,32.594v1.04h.461l14.388,32.212v1.422h.632l14.217,31.831v1.8h.8L406,429.738v2.185h.974l13.888,31.067v2.567h1.145l7.477,16.732h9.031l-7.609-16.732h65l7.477,16.732ZM403.343,258.355H336.8l-12.822-28.237h66.755ZM379.306,204.54l9.017,20.167H321.529l-9.162-20.167h66.952Zm26.46,59.212,12.611,28.237H352.082L339.26,263.752h66.5ZM420.8,297.387l12.611,28.237H367.366l-12.822-28.237H420.8Zm15.033,33.634,12.611,28.237H382.649l-12.822-28.237Zm15.033,33.634,12.611,28.237H397.933l-12.822-28.237ZM465.9,398.289l12.611,28.237H413.216l-12.822-28.237ZM428.5,460.16l-12.822-28.237h65.254l12.611,28.237Z" transform="translate(-208.225 26.316)" fill="#e33325"/>
          <path id="Path_2659" data-name="Path 2659" d="M343.121,123.008v7.174s-27.921-16.8-56.553-26.078S227.33,90.6,227.33,90.6l2.5-3.567,1.251-1.777s23.458-.908,58.435,11.479S343.121,123.008,343.121,123.008Z" transform="translate(-227.33 -9.72)" fill="#ff7e74"/>
          <path id="Path_2660" data-name="Path 2660" d="M313.148,59.474c-5.318-3.133-12.914-5.305-22.853-2.764-15.4,3.949-38.452,19.43-50.695,28.2,19.391-19.983,40.888-33.516,63.9-34.687,1.3,1.014,2.567,2.08,3.791,3.186A65.379,65.379,0,0,1,313.148,59.474Z" transform="translate(-223.448 -20.8)" fill="#ff7e74"/>
          <path id="Path_2661" data-name="Path 2661" d="M343.121,122.577v7.174s-27.921-16.8-56.553-26.078S227.33,90.167,227.33,90.167l2.5-3.567c5.173,0,18.377.882,39.729,7.991C297.8,103.99,337.289,122.169,343.121,122.577Z" transform="translate(-227.33 -9.289)" fill="#ee4437"/>
        </g>
      </g>
      <g id="Group_639" data-name="Group 639" transform="translate(350.997 284.816)">
        <path id="Path_2691" data-name="Path 2691" d="M0,0H54.934V111.315H0Z" transform="translate(1.287)" fill="#ffdbd9"/>
        <line id="Line_39" data-name="Line 39" x2="43.033" transform="translate(7.54 7.727)" fill="none" stroke="#7b7b7b" stroke-width="0.5"/>
        <path id="Path_2662" data-name="Path 2662" d="M337.894,355.545H282.96V244.23S298.928,327.861,337.894,355.545Z" transform="translate(-281.673 -244.23)" fill="#ffccc9"/>
        <line id="Line_40" data-name="Line 40" x2="42.467" transform="translate(8.106 12.045)" fill="none" stroke="#7b7b7b" stroke-width="0.5"/>
        <line id="Line_41" data-name="Line 41" x2="43.033" transform="translate(7.54 91.714)" fill="none" stroke="#7b7b7b" stroke-width="0.5"/>
        <line id="Line_42" data-name="Line 42" x2="42.467" transform="translate(8.106 96.032)" fill="none" stroke="#7b7b7b" stroke-width="0.5"/>
        <line id="Line_43" data-name="Line 43" x2="43.033" transform="translate(7.54 100.771)" fill="none" stroke="#7b7b7b" stroke-width="0.5"/>
        <line id="Line_44" data-name="Line 44" x2="42.467" transform="translate(8.106 105.089)" fill="none" stroke="#7b7b7b" stroke-width="0.5"/>
        <path id="Path_2663" data-name="Path 2663" d="M316.484,276.529c-1.316-10.716-11.848-17.679-11.848-17.679s-10.531,6.964-11.848,17.679,5.924,37.439,5.924,37.439H310.56S317.8,287.245,316.484,276.529Z" transform="translate(-278.614 -239.604)" fill="none" stroke="#e33325" stroke-linecap="round" stroke-linejoin="round" stroke-width="0.5" stroke-dasharray="0 1"/>
        <path id="Path_2664" data-name="Path 2664" d="M297.046,290.7s-5.99,4.292-7.543,5.845-1.553,9.873-1.553,9.873l4.16-6.49,6.885-.685" transform="translate(-280.094 -229.527)" fill="none" stroke="#e33325" stroke-linecap="round" stroke-linejoin="round" stroke-width="0.5" stroke-dasharray="0 1"/>
        <path id="Path_2665" data-name="Path 2665" d="M309.128,290.7s5.99,4.292,7.543,5.845,1.553,9.873,1.553,9.873l-4.16-6.49-6.885-.685" transform="translate(-274.01 -229.527)" fill="none" stroke="#e33325" stroke-linecap="round" stroke-linejoin="round" stroke-width="0.5" stroke-dasharray="0 1"/>
        <path id="Path_2666" data-name="Path 2666" d="M310.471,278.355a6.845,6.845,0,1,1-6.845-6.845A6.848,6.848,0,0,1,310.471,278.355Z" transform="translate(-277.301 -235.598)" fill="#ee4437"/>
        <rect id="Rectangle_676" data-name="Rectangle 676" width="14.112" height="4.449" transform="translate(36.461 17.785)" fill="#7b7b7b"/>
        <path id="Path_2667" data-name="Path 2667" d="M319.753,265.421A2.751,2.751,0,1,1,317,262.67,2.759,2.759,0,0,1,319.753,265.421Z" transform="translate(-271.773 -238.395)" fill="#7b7b7b"/>
        <path id="Path_2668" data-name="Path 2668" d="M347.31,297.71s3,2.462,2.014,15.586-5.213,14.1-10.294,13.256Z" transform="translate(-263.932 -227.309)" fill="#ffb696"/>
        <path id="Path_2669" data-name="Path 2669" d="M340.062,293.055,338.35,302.6l-10.084,2.225.474-6.911c-2.33.118-4.463-.158-5.568-1.3a2.833,2.833,0,0,1-.7-1.264c-1.4-5.463.079-16.416.079-16.416,3.66-12.677,16.705-7.991,19.693-3.146,2.159,3.5.29,12.7-2.185,17.271Z" transform="translate(-269.361 -235.831)" fill="#ffb696"/>
        <path id="Path_2670" data-name="Path 2670" d="M328.428,292.429c-2.33.118-4.463-.158-5.568-1.3,1.29-.118,4.818-.606,6.477-2.659,1.488-1.843-.908,3.962-.908,3.962Z" transform="translate(-269.049 -230.348)" fill="#d88e75"/>
        <path id="Path_2671" data-name="Path 2671" d="M346.665,291.481c-.158.329-.329.658-.513.974-3.317,5.858-8.675,5.924-12.98,4.3s-3.739-4.239-3.739-4.239,1.2.645,2.4-1.119a6.992,6.992,0,0,0,.842-4.384c-.145-.961-.553-1.7-1.264-1.751a1.382,1.382,0,0,0-.527.053c-1.343.316-1.8,2.264-1.8,2.264a3.309,3.309,0,0,1-.421-2.751c-3.8-1.119-4.015-3.449-4.015-3.449l-.355,1.685c-1.975-.421-4.436-3.383-3.173-7.043a7.406,7.406,0,0,1,4.252-4.581,1.038,1.038,0,0,1,.118-.053c2.541-1.672,11.15-4.041,16.363-1.29s4.726,7.122,4.726,7.122c2.738,2.8,2.883,8.675.092,14.257Z" transform="translate(-269.711 -236.442)" fill="#14142b"/>
        <path id="Path_2672" data-name="Path 2672" d="M348.512,278.2c-.026.105-.039.211-.066.3a4.206,4.206,0,0,1-5.16,3.462h-.026a5.908,5.908,0,0,1-2.08-.856,7.332,7.332,0,0,1-1.5-1.33A9.625,9.625,0,0,1,338.2,277.3a2.789,2.789,0,0,1-.145-.382,8.947,8.947,0,0,1-.408-1.369,8.6,8.6,0,0,1-.039-1.093.32.32,0,0,1,0-.158,3.577,3.577,0,0,1,.013-.369h0c.132-1.777.856-4.4,3.9-4.8,4.66-.632,7.767,5,6.99,9.1Z" transform="translate(-264.384 -236.37)" fill="#363648"/>
        <path id="Path_2673" data-name="Path 2673" d="M349.854,339.97v.987a37.449,37.449,0,0,1-13.941,1.777,78.263,78.263,0,0,1-8.794-1.027c-3.976-.7-6.727-1.448-6.727-1.448l1.882-9.939-.79-7.082c-1.922-1.514-4.515-3.936-5.042-6.371-.54-2.528,1.237-10.215,2.58-15.428l-.513-4.542c.592-.184,1.224-.369,1.9-.54.118-.026.25-.066.369-.092a176.844,176.844,0,0,1,18.93-3.186c6.358.7,14.783,6.095,14.783,6.095-.448,4.4-4.923,23.643-4.923,23.643l.158,9.36.132,7.793Z" transform="translate(-271.11 -228.774)" fill="#ee4437"/>
        <path id="Path_2674" data-name="Path 2674" d="M349.854,339.2l-22.734,1.738c-3.976-.7-6.727-1.448-6.727-1.448l1.882-9.939-.79-7.082c-1.922-1.514-4.515-3.936-5.042-6.371-.54-2.528,1.237-10.215,2.58-15.428l-.513-4.542c.592-.184,1.224-.369,1.9-.54.118-.026.25-.066.369-.092.7,6.108,3.712,27.25,9.755,31.976,5.476,4.292,15.231,4.186,19.193,3.936Z" transform="translate(-271.11 -228.008)" fill="#e32e20"/>
        <path id="Path_2675" data-name="Path 2675" d="M329.383,298.974l-19.562,13.348-18.43-16.929.026-.026s-1.027-3.883-1.343-4.726-2.119-3.067-2.646-3.173-.382.606-.211,1.053.777,2.33.777,2.33l-3.633-1.83s-.882-2.435-1.474-2.5-.421,2.291.171,3.278a1.586,1.586,0,0,0-.553,1.619,1.57,1.57,0,0,0-.263,1.7s-.948.948.777,2.857a27.691,27.691,0,0,0,4.12,3.567h0c2.119,3.067,14.494,20.615,21.826,22.668,8.043,2.251,19.6-6.727,19.6-6.727s8.372-6.714.8-16.495Z" transform="translate(-281.983 -230.85)" fill="#ffb696"/>
        <path id="Path_2676" data-name="Path 2676" d="M340.234,433.707c-1.04.184-21.813.474-22.195-.566s-.75-1.975,3.765-3.383a14.923,14.923,0,0,0,2.936-1.369,42.877,42.877,0,0,0,6.6-5.108l-4.068-21.365-.948-4.976h12.4a37.286,37.286,0,0,1,.619,5.963c.369,7.174.342,18.022.329,20.931,0,0,.184,1.119.382,2.607.395,2.883.869,7.148.184,7.267Z" transform="translate(-270.639 -195.912)" fill="#ffb696"/>
        <path id="Path_2677" data-name="Path 2677" d="M363.36,433.334c-.882.566-14.8.158-18.653.039a.745.745,0,0,1-.592-1.172,13.39,13.39,0,0,1,4.015-2.909,6.142,6.142,0,0,0,1.369-1.066,25.506,25.506,0,0,0,3.765-5.239l-4.858-20.865h-.013l-1.343-5.792,11.571,1.409a29.769,29.769,0,0,1,1.053,5.384c.869,6.6,1.409,16.429,1.58,19.483h.039s.408,1.33.869,3.028c.829,3.015,1.856,7.28,1.2,7.7Z" transform="translate(-262.369 -196.105)" fill="#ffb696"/>
        <path id="Path_2678" data-name="Path 2678" d="M337.3,402.9a48.911,48.911,0,0,1-12.071-.987l-.948-4.976h12.4A37.286,37.286,0,0,1,337.3,402.9Z" transform="translate(-268.599 -195.912)" fill="#d88e75"/>
        <path id="Path_2679" data-name="Path 2679" d="M358.934,403.123a49.7,49.7,0,0,1-11.268-1h-.013l-1.343-5.792,11.571,1.409A29.768,29.768,0,0,1,358.934,403.123Z" transform="translate(-261.629 -196.105)" fill="#d88e75"/>
        <path id="Path_2680" data-name="Path 2680" d="M371.249,418.821a26.905,26.905,0,0,1-8.794,2.093,32.831,32.831,0,0,1-8.412-.448L339.59,358.174l3.12,61.029c-2.764,1.751-6.648,2.185-10.07,2.133a.145.145,0,0,1-.105,0,41.641,41.641,0,0,1-5.582-.461c-1.264-.184-2.04-.355-2.04-.355s-12.124-50.5-10.149-68.269,6.2-22.59,6.2-22.59a91.383,91.383,0,0,1,16.192-2.817,57.748,57.748,0,0,1,13.23.171c9.531,10.439,9.228,25.8,9.228,25.8l11.637,66Z" transform="translate(-271.68 -218.175)" fill="#14142b"/>
        <path id="Path_2681" data-name="Path 2681" d="M340.234,426.814c-1.04.184-21.813.474-22.195-.566s-.75-1.975,3.765-3.383a14.923,14.923,0,0,0,2.936-1.369c0,.342.171.724,1.014.75,1.553.053,4.515-.79,8.925-2.685,4.239-1.8,5.292-.145,5.371-.013.395,2.883.869,7.148.184,7.267Z" transform="translate(-270.639 -189.019)" fill="#ee4437"/>
        <path id="Path_2682" data-name="Path 2682" d="M363.36,426.541c-.882.566-14.8.158-18.653.039a.745.745,0,0,1-.592-1.172,13.39,13.39,0,0,1,4.015-2.909,6.142,6.142,0,0,0,1.369-1.066,3.528,3.528,0,0,0,1.975.026c2.528-.461,3.436-3.66,7.28-3.66a4.532,4.532,0,0,1,3.409,1.04c.829,3.015,1.856,7.28,1.2,7.7Z" transform="translate(-262.369 -189.311)" fill="#ee4437"/>
        <path id="Path_2683" data-name="Path 2683" d="M356.436,415.19a32.832,32.832,0,0,1-8.412-.448L333.57,352.45l10.347-7.78s-1.093,20.878,2.093,37.425c2.633,13.7,8.491,28.434,10.426,33.094Z" transform="translate(-265.66 -212.45)" fill="#282838"/>
        <path id="Path_2684" data-name="Path 2684" d="M322.871,356.07c-2.62,26.473,9.478,64.32,9.768,65.2h-.105l-5.582-.461c-1.264-.184-2.04-.355-2.04-.355s-12.124-50.5-10.149-68.269,6.2-22.59,6.2-22.59a91.384,91.384,0,0,1,16.192-2.817c-4.147,2.37-12.335,9.491-14.283,29.29Z" transform="translate(-271.68 -218.111)" fill="#282838"/>
        <path id="Path_2685" data-name="Path 2685" d="M303.836,306.7l-2,4.976S300.242,307.253,303.836,306.7Z" transform="translate(-275.813 -224.464)" fill="#d88e75"/>
        <path id="Path_2686" data-name="Path 2686" d="M327.79,313.9h16.955s.25,2.9-7.1,2.9S327.79,313.9,327.79,313.9Z" transform="translate(-267.489 -222.186)" fill="#e32e20"/>
        <path id="Path_2687" data-name="Path 2687" d="M329.077,286.959a3.309,3.309,0,0,1-.421-2.751c-3.8-1.119-4.015-3.449-4.015-3.449l-.355,1.685c-1.975-.421-4.436-3.383-3.173-7.043a7.406,7.406,0,0,1,4.252-4.581c.224,2.37,1.185,9.123,5.516,13.875-1.343.316-1.8,2.264-1.8,2.264Z" transform="translate(-269.711 -235.817)" fill="#26295e"/>
        <path id="Path_2688" data-name="Path 2688" d="M344.588,287.113c-.158.329-.329.658-.513.974-3.317,5.858-8.675,5.924-12.98,4.3s-3.739-4.239-3.739-4.239,1.2.645,2.4-1.119a6.992,6.992,0,0,0,.842-4.384,14.4,14.4,0,0,0,4.489,2.435,33.272,33.272,0,0,0,9.5,2.027Z" transform="translate(-267.634 -232.074)" fill="#14142b"/>
        <path id="Path_2689" data-name="Path 2689" d="M348.448,277.357a4.206,4.206,0,0,1-5.16,3.462h-.026a7.4,7.4,0,0,1-3.581-2.185,7.564,7.564,0,0,1-1.474-2.488,2.785,2.785,0,0,1-.145-.382,10.006,10.006,0,0,1-.448-2.462.321.321,0,0,1,0-.158,2.714,2.714,0,0,1-.013-.434c.013.013.013.039.026.053h0c1.961,4.37,8.254,4.673,10.821,4.607Z" transform="translate(-264.386 -235.219)" fill="#26295e"/>
      </g>
    </g>
  </g>
</svg>
