<?xml version="1.0" standalone="no"?>
<!DOCTYPE svg PUBLIC "-//W3C//DTD SVG 20010904//EN"
 "http://www.w3.org/TR/2001/REC-SVG-20010904/DTD/svg10.dtd">
<svg version="1.0" xmlns="http://www.w3.org/2000/svg"
 width="423.000000pt" height="180.000000pt" viewBox="0 0 423.000000 180.000000"
 preserveAspectRatio="xMidYMid meet">

<g transform="translate(0.000000,180.000000) scale(0.100000,-0.100000)"
fill="#000000" stroke="none">
<path d="M640 875 l0 -335 60 0 59 0 3 142 c3 161 0 156 85 143 66 -10 85 -35
129 -168 l38 -117 63 0 c35 0 63 4 63 9 0 14 -70 212 -87 246 -8 16 -27 41
-41 53 -15 13 -22 26 -17 28 36 15 78 49 96 76 28 46 23 140 -10 187 -43 60
-84 71 -273 71 l-168 0 0 -335z m320 215 c46 -46 36 -124 -20 -153 -26 -13
-54 -17 -105 -15 l-70 3 -3 93 -3 92 91 0 c76 0 93 -3 110 -20z"/>
<path d="M3062 1154 c-43 -30 -16 -94 40 -94 31 0 51 21 51 57 0 47 -49 67
-91 37z"/>
<path d="M3262 1154 c-43 -30 -16 -94 40 -94 31 0 51 21 51 57 0 47 -49 67
-91 37z"/>
<path d="M3740 900 l0 -260 50 0 50 0 0 125 c0 120 1 127 25 150 27 28 71 33
101 11 17 -13 19 -30 22 -150 l4 -136 44 0 44 0 0 133 c0 72 -5 149 -11 170
-20 74 -120 101 -193 52 l-36 -24 0 94 0 95 -50 0 -50 0 0 -260z"/>
<path d="M1770 885 l0 -245 45 0 45 0 0 100 c0 112 3 117 65 106 48 -9 60 -25
91 -121 l28 -85 48 0 c26 0 48 4 48 8 0 15 -47 147 -64 181 -9 17 -24 35 -32
38 -18 7 -18 23 0 23 8 0 28 16 45 35 35 41 41 87 16 139 -27 56 -57 66 -204
66 l-131 0 0 -245z m228 159 c16 -11 22 -25 22 -53 0 -52 -19 -66 -94 -66
l-61 0 -3 54 c-2 29 -1 60 2 67 8 20 105 18 134 -2z"/>
<path d="M3498 1093 c-23 -4 -27 -10 -30 -41 -3 -32 -7 -37 -30 -40 -25 -3
-28 -8 -28 -38 0 -31 2 -34 30 -34 l30 0 0 -110 c0 -81 4 -119 16 -141 20 -40
74 -63 130 -54 55 8 67 23 53 63 -9 28 -13 30 -45 25 -56 -9 -64 5 -64 118 l0
99 55 0 55 0 0 35 0 35 -55 0 -55 0 0 45 c0 48 1 47 -62 38z"/>
<path d="M2275 1002 c-59 -28 -71 -46 -51 -77 20 -30 18 -30 58 -5 42 25 116
27 125 4 11 -29 -12 -48 -78 -64 -108 -27 -129 -46 -129 -119 0 -82 83 -131
164 -97 20 8 39 22 42 31 5 13 10 11 30 -10 18 -20 33 -25 69 -25 44 0 45 1
45 33 0 24 -6 35 -22 42 -22 9 -23 18 -28 127 -5 112 -6 119 -32 145 -37 36
-132 44 -193 15z m133 -224 c-4 -51 -39 -83 -81 -73 -30 8 -46 48 -30 74 8 13
68 35 106 40 5 1 7 -18 5 -41z"/>
<path d="M2753 1000 c-18 -11 -33 -24 -33 -30 0 -5 -4 -10 -10 -10 -5 0 -10
11 -10 25 0 23 -4 25 -45 25 l-45 0 0 -185 0 -185 50 0 50 0 0 125 c0 120 1
127 25 150 29 30 85 34 106 8 10 -11 15 -55 17 -150 l4 -133 44 0 44 0 0 140
c0 159 -11 199 -59 224 -41 22 -99 20 -138 -4z"/>
<path d="M3050 796 c0 -231 -3 -245 -54 -232 -21 5 -24 2 -29 -31 -4 -20 -4
-39 -1 -42 3 -4 30 -6 60 -6 45 0 58 4 80 26 36 37 43 83 44 307 l0 192 -50 0
-50 0 0 -214z"/>
<path d="M3250 825 l0 -185 50 0 50 0 0 185 0 185 -50 0 -50 0 0 -185z"/>
</g>
</svg>
